#!OML:ASF F:\VICON\USERDATA\INSTALL\rory3\rory3.ASF
:FULLY-SPECIFIED
:DEGREES
206
root 11.7876 17.6603 10.0831 -3.85058 -5.52237 0.734595
lowerback 10.6726 1.74858 0.269436
upperback 1.2378 2.34614 -0.101924
thorax -4.67399 1.1516 -0.597632
lowerneck -17.3207 -8.92206 -14.7527
upperneck 26.3101 -12.1287 12.3471
head 13.5016 -5.36127 5.19423
rclavicle 3.60297e-015 7.85199e-015
rhumerus -33.3001 -8.65836 -81.4404
rradius 40.6376
rwrist 2.4814
rhand -15.1494 12.0199
rfingers 7.12502
rthumb 11.0206 -17.6708
lclavicle 3.60297e-015 7.85199e-015
lhumerus -36.4587 8.05572 81.0369
lradius 28.6441
lwrist -9.05746
lhand -18.9103 26.0088
lfingers 7.12502
lthumb 7.39172 55.8597
rfemur 3.98937 6.07164 25.6192
rtibia 35.9874
rfoot -17.0552 -5.04677
rtoes -1.07161
lfemur -14.0315 -7.13228 -13.7589
ltibia 14.933
lfoot 3.10662 -19.5454
ltoes -4.83814
207
root 11.7954 17.6726 10.1754 -3.97919 -5.94662 1.22935
lowerback 10.7173 1.73888 -0.397881
upperback 1.33933 2.24893 -0.216228
thorax -4.61479 1.11476 -0.327193
lowerneck -17.0652 -9.01379 -14.7292
upperneck 26.101 -12.3388 12.5052
head 13.4086 -5.4439 5.21104
rclavicle 2.85753e-015 1.61016e-014
rhumerus -33.1499 -8.84089 -81.52
rradius 40.4603
rwrist 2.80332
rhand -15.054 11.4581
rfingers 7.12502
rthumb 11.1127 -18.2277
lclavicle 2.85753e-015 1.61016e-014
lhumerus -36.3646 8.43035 80.8726
lradius 28.5396
lwrist -8.74371
lhand -17.95 27.8173
lfingers 7.12502
lthumb 8.31858 57.6335
rfemur 3.40403 5.83071 24.9662
rtibia 37.689
rfoot -16.289 -4.79245
rtoes -0.510725
lfemur -13.4898 -6.5286 -14.4605
ltibia 14.8712
lfoot 3.51341 -20.1241
ltoes -2.20602
208
root 11.8038 17.6856 10.2684 -4.15745 -6.27925 1.81231
lowerback 10.7971 1.71768 -1.09143
upperback 1.38016 2.12895 -0.405159
thorax -4.63454 1.06592 -0.118612
lowerneck -16.6212 -9.08796 -14.6168
upperneck 25.8793 -12.5729 12.6567
head 13.2679 -5.53794 5.2103
rclavicle -1.52878e-014 1.2921e-015
rhumerus -33.0401 -9.02918 -81.6713
rradius 40.1241
rwrist 3.03873
rhand -14.9605 10.9109
rfingers 7.12502
rthumb 11.2029 -18.77
lclavicle -1.52878e-014 1.2921e-015
lhumerus -36.6098 8.61687 80.6311
lradius 28.8981
lwrist -8.56507
lhand -19.13 26.711
lfingers 7.12502
lthumb 7.17967 56.5692
rfemur 2.82875 5.36123 24.155
rtibia 39.4304
rfoot -15.4762 -4.50145
rtoes -0.68383
lfemur -12.8497 -5.98087 -15.2977
ltibia 14.6707
lfoot 3.42215 -20.5271
ltoes -1.62499
209
root 11.8126 17.7044 10.3626 -4.3943 -6.5289 2.39449
lowerback 10.9066 1.67138 -1.76759
upperback 1.42657 1.97688 -0.575466
thorax -4.66252 1.00097 0.103803
lowerneck -16.2553 -9.17092 -14.4815
upperneck 25.7199 -12.7972 12.7334
head 13.16 -5.63154 5.17797
rclavicle 2.09997e-014 -1.49089e-015
rhumerus -32.9123 -9.40756 -81.745
rradius 39.5694
rwrist 3.33737
rhand -15.113 11.0101
rfingers 7.12502
rthumb 11.0557 -18.6787
lclavicle 2.09997e-014 -1.49089e-015
lhumerus -36.8285 8.8561 80.3537
lradius 29.2955
lwrist -8.81889
lhand -20.9573 23.9199
lfingers 7.12502
lthumb 5.41561 53.8307
rfemur 2.27567 4.80947 23.3226
rtibia 41.1886
rfoot -14.5341 -4.07822
rtoes -0.017637
lfemur -12.0971 -5.67331 -16.1212
ltibia 14.3576
lfoot 2.883 -20.3062
ltoes -3.30739
210
root 11.8226 17.7276 10.4606 -4.57521 -6.86668 2.85517
lowerback 10.8871 1.62146 -2.29989
upperback 1.55041 1.84316 -0.70405
thorax -4.53242 0.941405 0.291631
lowerneck -16.2721 -9.27177 -14.2972
upperneck 25.6937 -12.9894 12.7014
head 13.1681 -5.70197 5.0938
rclavicle 7.24943e-015 7.95139e-016
rhumerus -32.7209 -9.86847 -81.8319
rradius 39.1088
rwrist 3.39709
rhand -15.3555 10.8982
rfingers 7.12502
rthumb 10.8219 -18.8029
lclavicle 7.24943e-015 7.95139e-016
lhumerus -36.93 9.17451 80.0977
lradius 29.6578
lwrist -9.12641
lhand -21.5766 22.559
lfingers 7.12502
lthumb 4.81763 52.4843
rfemur 1.6138 4.22889 22.5703
rtibia 42.9302
rfoot -13.3139 -3.56721
rtoes 1.55006
lfemur -11.3259 -5.66052 -16.7515
ltibia 13.9359
lfoot 2.74291 -19.5334
ltoes -4.11767
211
root 11.8371 17.7524 10.5527 -4.54066 -7.29335 2.97333
lowerback 10.7784 1.53368 -2.41916
upperback 1.61443 1.71465 -0.7528
thorax -4.40405 0.8781 0.330895
lowerneck -16.3724 -9.34978 -14.0706
upperneck 25.7485 -13.1243 12.5592
head 13.2031 -5.75165 4.96973
rclavicle 1.98598e-014 -6.21202e-015
rhumerus -32.5076 -10.3029 -81.912
rradius 38.7125
rwrist 3.55855
rhand -15.4787 10.7656
rfingers 7.12502
rthumb 10.703 -18.9417
lclavicle 1.98598e-014 -6.21202e-015
lhumerus -37.0967 9.52514 79.8814
lradius 30.1533
lwrist -9.27883
lhand -20.4206 23.873
lfingers 7.12502
lthumb 5.93373 53.7699
rfemur 0.663587 3.56673 22.1174
rtibia 44.6578
rfoot -11.9192 -2.93246
rtoes 3.59132
lfemur -10.6854 -5.63248 -16.9986
ltibia 13.3747
lfoot 2.76483 -18.9919
ltoes -4.15403
212
root 11.8514 17.7777 10.6386 -4.48951 -7.81156 2.9188
lowerback 10.8902 1.45779 -2.37351
upperback 1.50031 1.614 -0.738526
thorax -4.58212 0.829638 0.330072
lowerneck -16.2302 -9.40657 -13.9013
upperneck 25.8781 -13.2517 12.4063
head 13.22 -5.81519 4.86245
rclavicle -1.91796e-014 2.93207e-015
rhumerus -32.6139 -10.6495 -81.9317
rradius 38.4323
rwrist 3.77262
rhand -15.6202 10.8401
rfingers 7.12502
rthumb 10.5665 -18.8742
lclavicle -1.91796e-014 2.93207e-015
lhumerus -37.2966 9.45282 79.802
lradius 30.2402
lwrist -9.03942
lhand -18.676 25.5779
lfingers 7.12502
lthumb 7.61791 55.4207
rfemur -0.365572 2.84635 21.8617
rtibia 46.371
rfoot -10.2411 -2.47365
rtoes 4.42737
lfemur -10.0408 -5.45907 -17.0518
ltibia 12.7963
lfoot 2.57146 -18.7356
ltoes -5.19993
213
root 11.8657 17.8023 10.7282 -4.53215 -8.41598 3.00946
lowerback 11.0069 1.41771 -2.50112
upperback 1.43058 1.54096 -0.721495
thorax -4.72203 0.797231 0.426448
lowerneck -16.0162 -9.53936 -14.0966
upperneck 25.978 -13.4678 12.4954
head 13.278 -5.92881 4.89686
rclavicle -1.88069e-014 1.63997e-015
rhumerus -32.7887 -10.7867 -81.9325
rradius 38.3337
rwrist 3.7217
rhand -15.7406 10.5482
rfingers 7.12502
rthumb 10.4504 -19.1721
lclavicle -1.88069e-014 1.63997e-015
lhumerus -37.1081 8.75385 80.0314
lradius 29.6781
lwrist -8.19779
lhand -17.9755 25.9629
lfingers 7.12502
lthumb 8.29397 55.7801
rfemur -1.32389 2.10771 21.4217
rtibia 48.066
rfoot -8.30215 -2.07995
rtoes 6.30025
lfemur -9.33238 -5.20292 -17.256
ltibia 12.318
lfoot 2.42656 -18.3979
ltoes -5.74379
214
root 11.8811 17.8266 10.8149 -4.57458 -9.07378 3.15489
lowerback 11.0906 1.38324 -2.6472
upperback 1.42344 1.47326 -0.737391
thorax -4.77746 0.76656 0.500166
lowerneck -15.9216 -9.76676 -14.4777
upperneck 26.0652 -13.7834 12.678
head 13.3997 -6.08828 4.975
rclavicle -8.69683e-017 -7.70291e-015
rhumerus -32.7392 -10.993 -81.9406
rradius 38.0704
rwrist 3.69607
rhand -15.7862 10.4159
rfingers 7.12502
rthumb 10.4064 -19.3066
lclavicle -8.69683e-017 -7.70291e-015
lhumerus -36.896 8.17514 80.2102
lradius 29.2718
lwrist -7.72747
lhand -18.0242 25.7199
lfingers 7.12502
lthumb 8.24693 55.539
rfemur -2.30883 1.2903 20.8615
rtibia 49.7183
rfoot -6.32328 -1.61165
rtoes 11.2275
lfemur -8.64433 -4.83534 -17.5311
ltibia 11.8583
lfoot 2.27923 -17.9612
ltoes -6.22334
215
root 11.8966 17.8526 10.8975 -4.58586 -9.77778 3.20165
lowerback 11.1135 1.37765 -2.61728
upperback 1.43285 1.4656 -0.790378
thorax -4.77795 0.761512 0.428865
lowerneck -15.6545 -9.94086 -14.7396
upperneck 25.9619 -14.0945 12.9833
head 13.4085 -6.22944 5.08355
rclavicle -1.90243e-014 7.35503e-015
rhumerus -32.5967 -11.4482 -81.9702
rradius 37.6407
rwrist 3.71063
rhand -15.6641 10.6894
rfingers 7.12502
rthumb 10.5242 -19.0271
lclavicle -1.90243e-014 7.35503e-015
lhumerus -36.7571 7.86889 80.1937
lradius 29.1101
lwrist -7.78205
lhand -17.9456 25.6582
lfingers 7.12502
lthumb 8.32279 55.4742
rfemur -3.33878 0.461184 20.4253
rtibia 51.3041
rfoot -4.38085 -1.23927
rtoes 16.366
lfemur -7.93931 -4.67478 -17.6711
ltibia 11.3477
lfoot 1.92718 -17.4046
ltoes -7.81279
216
root 11.9111 17.8761 10.9799 -4.58269 -10.5567 3.16494
lowerback 11.078 1.40559 -2.51549
upperback 1.44967 1.51529 -0.805997
thorax -4.73895 0.78346 0.348932
lowerneck -15.2002 -10.0636 -15.0254
upperneck 25.6882 -14.3857 13.4717
head 13.3264 -6.35466 5.2755
rclavicle -2.13725e-014 1.09332e-014
rhumerus -32.5846 -11.8779 -81.9849
rradius 37.4271
rwrist 3.62781
rhand -15.5644 10.9783
rfingers 7.12502
rthumb 10.6204 -18.7333
lclavicle -2.13725e-014 1.09332e-014
lhumerus -36.6614 7.08845 80.3904
lradius 29.038
lwrist -7.45286
lhand -18.3166 25.4059
lfingers 7.12502
lthumb 7.96478 55.2358
rfemur -4.33486 -0.318754 20.139
rtibia 52.7906
rfoot -2.52778 -1.17418
rtoes 19.7374
lfemur -7.30696 -4.50881 -17.6925
ltibia 10.9502
lfoot 1.50366 -16.8491
ltoes -9.48554
217
root 11.9244 17.8973 11.0637 -4.568 -11.4233 3.24863
lowerback 11.0945 1.42873 -2.6064
upperback 1.36613 1.53367 -0.782658
thorax -4.83921 0.795619 0.419811
lowerneck -14.8616 -10.2056 -15.4364
upperneck 25.6478 -14.6369 13.7928
head 13.356 -6.48722 5.43266
rclavicle 2.48481e-016 -6.55989e-015
rhumerus -32.7929 -11.8499 -81.988
rradius 37.4124
rwrist 3.3481
rhand -15.5372 10.8499
rfingers 7.12502
rthumb 10.6466 -18.8604
lclavicle 2.48481e-016 -6.55989e-015
lhumerus -36.8057 6.15458 80.739
lradius 29.0727
lwrist -6.92935
lhand -18.9216 25.2725
lfingers 7.12502
lthumb 7.38078 55.1237
rfemur -5.31825 -1.20328 19.6788
rtibia 54.1733
rfoot -1.98179 -1.24021
rtoes 19.298
lfemur -6.75101 -4.16167 -17.8354
ltibia 10.6186
lfoot 1.2662 -16.2311
ltoes -9.47735
218
root 11.9352 17.9131 11.1396 -4.58523 -12.3067 3.30796
lowerback 11.3499 1.45062 -2.72002
upperback 1.1871 1.53802 -0.739294
thorax -5.17374 0.804317 0.519198
lowerneck -14.5791 -10.3797 -15.7186
upperneck 25.7599 -14.8946 13.819
head 13.4214 -6.63917 5.44977
rclavicle -2.33199e-014 -2.18663e-015
rhumerus -33.16 -11.73 -81.981
rradius 37.404
rwrist 3.082
rhand -15.6843 10.3502
rfingers 7.12502
rthumb 10.5047 -19.3674
lclavicle -2.33199e-014 -2.18663e-015
lhumerus -37.013 5.51998 80.9636
lradius 29.1008
lwrist -6.65047
lhand -19.375 25.3405
lfingers 7.12502
lthumb 6.94314 55.2066
rfemur -6.27741 -2.13978 19.2927
rtibia 55.4129
rfoot -1.54579 -1.52543
rtoes 20.5989
lfemur -6.11406 -3.80163 -17.9336
ltibia 10.1912
lfoot 1.16018 -15.5706
ltoes -8.70363
219
root 11.944 17.9287 11.2104 -4.62626 -13.1862 3.37879
lowerback 11.5863 1.47149 -2.83828
upperback 1.13124 1.53977 -0.745534
thorax -5.36727 0.809393 0.572303
lowerneck -14.4265 -10.4732 -15.6753
upperneck 25.6451 -15.0616 13.8288
head 13.3698 -6.7168 5.41232
rclavicle 5.42309e-015 8.64713e-015
rhumerus -33.3297 -11.7676 -82.0701
rradius 37.4333
rwrist 2.97087
rhand -15.9167 9.8569
rfingers 7.12502
rthumb 10.2806 -19.8718
lclavicle 5.42309e-015 8.64713e-015
lhumerus -36.9007 5.05246 81.0219
lradius 29.0464
lwrist -6.64847
lhand -19.6982 25.2789
lfingers 7.12502
lthumb 6.63117 55.1551
rfemur -7.2117 -3.11025 18.9348
rtibia 56.5123
rfoot -1.89627 -2.54858
rtoes 19.8776
lfemur -5.46781 -3.6936 -18.0262
ltibia 9.77805
lfoot 1.05023 -14.6746
ltoes -8.65266
220
root 11.9528 17.9472 11.2928 -4.69227 -14.1086 3.57242
lowerback 11.5958 1.52042 -3.02947
upperback 1.20203 1.57692 -0.806589
thorax -5.30281 0.829549 0.61085
lowerneck -14.5692 -10.4949 -15.3726
upperneck 25.5598 -15.1333 13.7843
head 13.3437 -6.71896 5.32062
rclavicle 4.95719e-015 -7.7526e-015
rhumerus -33.2718 -11.804 -82.221
rradius 37.4676
rwrist 2.8139
rhand -16.0381 9.72117
rfingers 7.12502
rthumb 10.1634 -20.0133
lclavicle 4.95719e-015 -7.7526e-015
lhumerus -36.6898 4.65533 81.0133
lradius 29.026
lwrist -7.01304
lhand -19.6452 25.122
lfingers 7.12502
lthumb 6.68229 54.9966
rfemur -8.01035 -4.14708 18.3941
rtibia 57.4262
rfoot -2.51252 -3.69374
rtoes 19.274
lfemur -4.86414 -3.53759 -18.2819
ltibia 9.5396
lfoot 0.878086 -13.7488
ltoes -8.46886
